<svg width="35" height="17" viewBox="0 0 35 17" fill="none" xmlns="http://www.w3.org/2000/svg">
<path d="M33.4141 7.81825L1.65305 7.81825C1.3111 7.81825 1.03357 8.1237 1.03357 8.50007C1.03357 8.87643 1.3111 9.18188 1.65305 9.18188L33.4141 9.18188C33.756 9.18188 34.0336 8.87643 34.0336 8.50007C34.0336 8.1237 33.756 7.81825 33.4141 7.81825Z" fill="#5B6460"/>
<path d="M8.87947 1C8.80211 1 8.72475 1.02819 8.66552 1.084L1.08824 8.29797C1.03203 8.35206 1 8.42513 1 8.50165C1 8.57818 1.03203 8.65125 1.08824 8.70533L8.66612 15.9159C8.78398 16.028 8.97557 16.028 9.09343 15.9159C9.21128 15.8037 9.21128 15.6213 9.09343 15.5091L1.7295 8.50165L9.09343 1.49136C9.21128 1.37917 9.21128 1.19678 9.09343 1.08458C9.03419 1.02819 8.95683 1 8.87947 1Z" fill="#5B6460" stroke="#5B6460" stroke-width="0.681818"/>
</svg>
