<svg width="15" height="15" viewBox="0 0 15 15" fill="none" xmlns="http://www.w3.org/2000/svg">
<path d="M7.37292 0.461426C4.67767 0.461426 2.48486 2.65423 2.48486 5.34948C2.48486 8.73713 7.37773 14.5239 7.37773 14.5239C7.37773 14.5239 12.261 8.57054 12.261 5.34948C12.261 2.65423 10.0683 0.461426 7.37292 0.461426ZM8.84775 6.78071C8.44108 7.18729 7.90705 7.39062 7.37292 7.39062C6.83888 7.39062 6.30467 7.18729 5.89818 6.78071C5.08493 5.96755 5.08493 4.64438 5.89818 3.83114C6.29197 3.43718 6.81579 3.2202 7.37292 3.2202C7.93005 3.2202 8.45379 3.43726 8.84775 3.83114C9.661 4.64438 9.661 5.96755 8.84775 6.78071Z" fill="#5B6460"/>
</svg>
