<svg width="37" height="37" viewBox="0 0 37 37" fill="none" xmlns="http://www.w3.org/2000/svg">
<g clip-path="url(#clip0_285_1855)">
<path d="M6.52575 14.8817C6.40657 14.6426 6.21806 14.4454 5.98404 14.2974C5.73992 14.1478 5.45173 14.0431 5.12237 13.981C4.78724 13.9203 4.4001 13.8929 3.95157 13.8885L1.88082 13.89C1.66558 13.8929 1.45468 14.0604 1.40412 14.2685L0.0108555 20.337C-0.0397036 20.5421 0.0953613 20.714 0.310598 20.714H1.30228C1.51751 20.714 1.73058 20.5472 1.77825 20.337L2.11844 18.8636C2.16395 18.6584 2.3763 18.4873 2.5937 18.4873H2.87755C4.09025 18.4858 5.0292 18.2381 5.7038 17.7419C6.38202 17.2449 6.71643 16.5884 6.71643 15.7751C6.71571 15.419 6.6572 15.12 6.52575 14.8817ZM4.3871 16.8643C4.08736 17.0839 3.67061 17.1937 3.13324 17.1937H2.89055C2.67459 17.1937 2.54242 17.0232 2.58937 16.8152L2.88766 15.5267C2.92956 15.3201 3.14696 15.1489 3.36003 15.1504L3.68505 15.1482C4.06425 15.1482 4.35388 15.2139 4.54744 15.341C4.73885 15.4667 4.83491 15.6668 4.83346 15.9319C4.83924 16.3349 4.6854 16.6447 4.3871 16.8643Z" fill="#5B6460"/>
<path d="M34.7955 14.3639L34.7334 14.3826L34.6504 14.3942L34.5485 14.3783L34.4965 14.3277L34.4727 14.2483L34.4712 14.1291V13.6878H34.8028V13.5513H34.4712V13.2761H34.3073V13.5513H34.196V13.6878H34.3073V14.2014L34.3838 14.4556L34.6092 14.5365L34.7038 14.5285L34.8042 14.509V14.3639H34.7955Z" fill="#5B6460"/>
<path d="M36.333 13.6213L36.0961 13.5238L35.9214 13.5592L35.7437 13.6791L35.6404 13.5643L35.4728 13.5245L35.3118 13.5599L35.1594 13.6581V13.5512H34.9983V14.5155H35.1586V13.7954L35.2937 13.7116L35.428 13.6784L35.5378 13.6979L35.592 13.7535L35.6158 13.8459L35.6238 13.9651V14.5162H35.7848V13.8994L35.782 13.8481L35.7791 13.8012L35.9163 13.7138L36.0521 13.6798L36.1583 13.6993L36.216 13.7549L36.2363 13.8481L36.2471 13.9658V14.5169H36.4089V13.8907L36.333 13.6213Z" fill="#5B6460"/>
<path d="M11.3079 15.7491C10.9337 15.5382 10.3429 15.4327 9.53541 15.4327C9.136 15.4327 8.73803 15.4638 8.33572 15.5259C8.03887 15.5714 8.00998 15.5801 7.82724 15.6198C7.45021 15.7021 7.39099 16.0784 7.39099 16.0784L7.26965 16.5775C7.20103 16.8961 7.38449 16.8838 7.46105 16.8571C7.62573 16.8079 7.71746 16.7574 8.05403 16.6823C8.37545 16.6093 8.71419 16.5544 8.98288 16.558C9.3794 16.558 9.68276 16.5999 9.88499 16.6852C10.0843 16.7718 10.184 16.9206 10.184 17.1359L10.1667 17.276L10.0237 17.3641C9.46102 17.3995 9.05438 17.4515 8.56107 17.523C8.07859 17.5902 7.65534 17.7079 7.30359 17.869C6.92585 18.0351 6.6456 18.2583 6.44987 18.5421C6.26063 18.8274 6.16602 19.1734 6.16602 19.5793C6.16602 19.9614 6.30325 20.277 6.56977 20.5211C6.83773 20.7609 7.19164 20.8779 7.61489 20.8779C7.88286 20.8765 8.09015 20.8556 8.23749 20.8202L8.7178 20.6548L9.12444 20.4294L9.49858 20.1824L9.50363 20.1896L9.46608 20.3485L9.46391 20.355V20.3565C9.42346 20.55 9.54047 20.7089 9.72898 20.7277L9.73259 20.732H9.74993H10.5105H10.6535L10.6665 20.7263C10.8644 20.7032 11.05 20.5443 11.0934 20.355L11.8163 17.2254L11.8539 16.9705L11.8712 16.7314C11.8741 16.2879 11.6827 15.9593 11.3079 15.7491ZM9.70876 19.268L9.55419 19.4717L9.16417 19.6732C8.98071 19.7476 8.80664 19.7851 8.64557 19.7851C8.40145 19.7851 8.21004 19.7498 8.08076 19.6775L7.88936 19.3056C7.88936 19.104 7.93558 18.9444 8.03453 18.8216L8.4549 18.5356C8.63474 18.4749 8.85431 18.4237 9.10855 18.3883C9.33534 18.3601 9.78315 18.3088 9.84166 18.3074L9.91027 18.428C9.89655 18.4966 9.76943 19.0282 9.70876 19.268Z" fill="#5B6460"/>
<path d="M29.3198 15.7535C28.9435 15.5426 28.3534 15.4364 27.5481 15.4364C27.1487 15.4364 26.75 15.4675 26.3491 15.5317C26.0516 15.5751 26.0219 15.5845 25.8385 15.6235C25.4622 15.7051 25.4037 16.0828 25.4037 16.0828L25.2823 16.5812C25.2144 16.8997 25.3936 16.8853 25.4773 16.8607C25.6427 16.8116 25.7316 16.7632 26.0653 16.6852C26.3852 16.613 26.7269 16.5595 26.9963 16.561C27.3914 16.561 27.6947 16.6036 27.8962 16.6888C28.097 16.7755 28.1953 16.9257 28.1953 17.1388L28.1801 17.2782L28.0385 17.3685C27.4701 17.4024 27.0627 17.4544 26.5745 17.5259C26.0934 17.5931 25.6687 17.7101 25.3163 17.8719C24.94 18.0387 24.6561 18.2619 24.4626 18.5465C24.2712 18.8318 24.178 19.177 24.178 19.5794C24.178 19.9643 24.3138 20.28 24.5839 20.5226C24.8533 20.7617 25.2036 20.8816 25.6269 20.8816C25.8934 20.8787 26.1007 20.8614 26.2487 20.8231L26.7276 20.6599L27.1379 20.4345L27.5091 20.1846L27.5156 20.1926L27.4816 20.3529L27.478 20.3558L27.4795 20.3587C27.4347 20.5523 27.5524 20.7126 27.7431 20.7299L27.7446 20.7335H27.7619C27.8868 20.7335 28.3188 20.7335 28.5246 20.7335H28.6647L28.6799 20.7285C28.8756 20.7047 29.0605 20.5458 29.1017 20.3544L29.8269 17.2291L29.8651 16.9727L29.8861 16.7329C29.8868 16.2908 29.6976 15.9637 29.3198 15.7535ZM27.7243 19.2724L27.5633 19.4782L27.1769 19.6783C26.9934 19.752 26.8186 19.7903 26.6604 19.7903C26.4084 19.7903 26.222 19.7541 26.0963 19.6819L25.9028 19.3114C25.9028 19.1092 25.9497 18.951 26.0443 18.826C26.1404 18.7083 26.287 18.6115 26.469 18.5407C26.6467 18.4801 26.8663 18.4309 27.122 18.3941C27.3473 18.3659 27.7937 18.3132 27.8515 18.3125L27.9215 18.4331C27.9114 18.5017 27.7836 19.0311 27.7243 19.2724Z" fill="#5B6460"/>
<path d="M24.5348 14.9041C24.4106 14.6636 24.2243 14.4693 23.9888 14.3176C23.7476 14.1674 23.4615 14.062 23.1271 14.0013C22.7985 13.9428 22.4063 13.911 21.9607 13.9103L19.887 13.9117C19.6711 13.9153 19.4638 14.0829 19.4139 14.2887L18.0192 20.3602C17.9687 20.566 18.1073 20.7365 18.3182 20.7365L19.3114 20.735C19.5223 20.7365 19.7382 20.5675 19.7881 20.3594L20.1239 18.8853C20.173 18.6802 20.3861 18.5075 20.6006 18.509H20.8845C22.0986 18.509 23.0397 18.2591 23.7172 17.7643C24.3868 17.2638 24.7255 16.6087 24.7255 15.7947C24.7219 15.44 24.6605 15.1403 24.5348 14.9041ZM22.3962 16.8896C22.0972 17.1049 21.6797 17.2147 21.1452 17.2147H20.8982C20.6851 17.2168 20.5472 17.0435 20.5948 16.8369L20.8953 15.5506C20.9394 15.3447 21.1546 15.1721 21.3691 15.1743L21.6905 15.1721C22.0719 15.1743 22.3579 15.2371 22.5529 15.3642C22.7472 15.4913 22.8389 15.6907 22.8411 15.955C22.8433 16.3581 22.6938 16.6686 22.3962 16.8896Z" fill="#5B6460"/>
<path d="M33.0382 14.3371C33.0837 14.1298 32.9537 13.9615 32.7407 13.9644H31.8523C31.6702 13.9644 31.5063 14.0995 31.4261 14.2656L31.377 14.3421L31.3322 14.5386L30.0906 20.1824L30.0502 20.3558L30.0516 20.3601C30.0105 20.5457 30.1246 20.6859 30.3008 20.7126L30.316 20.7335H31.2383C31.4189 20.7335 31.5886 20.5963 31.6659 20.4273L31.7136 20.3551L33.0411 14.3378L33.0382 14.3371Z" fill="#5B6460"/>
<path d="M18.0467 15.5086C17.812 15.5115 16.8579 15.5086 16.8579 15.5086C16.6441 15.5086 16.3696 15.6813 16.2338 15.8871C16.2338 15.8871 14.8139 18.324 14.6759 18.5689L14.5112 18.5667L14.0692 15.9037C14.0201 15.6943 13.8012 15.5151 13.5289 15.5151L12.6405 15.5166C12.4268 15.5166 12.2953 15.687 12.3437 15.895C12.3437 15.895 13.0183 19.7339 13.1534 20.6375C13.2162 21.1358 13.1454 21.2247 13.1454 21.2247L12.2671 22.7545C12.1371 22.9625 12.2072 23.1322 12.4203 23.1322L13.4473 23.1308C13.6611 23.1308 13.9421 22.9625 14.0692 22.7537L18.02 16.0713C18.02 16.072 18.3999 15.5007 18.0467 15.5086Z" fill="#5B6460"/>
</g>
<defs>
<clipPath id="clip0_285_1855">
<rect width="36.409" height="36.409" fill="white"/>
</clipPath>
</defs>
</svg>
