<svg width="35" height="36" viewBox="0 0 35 36" fill="none" xmlns="http://www.w3.org/2000/svg">
<g clip-path="url(#clip0_285_1827)">
<path d="M24.5088 7.73987C21.8068 7.74059 19.3439 8.76477 17.4876 10.4469C15.63 8.76694 13.1685 7.74204 10.4693 7.74204C10.4469 7.74204 10.4238 7.74204 10.4022 7.74204C4.65432 7.77959 0 12.4556 0 18.2114C0 23.9903 4.69043 28.68 10.4686 28.68C13.1677 28.68 15.6292 27.6565 17.4862 25.9751C17.0983 25.6248 16.7473 25.2369 16.4158 24.831H18.5776C18.2518 25.2304 17.8965 25.6045 17.5144 25.9527H17.5129C17.5043 25.9621 17.4949 25.9678 17.4862 25.9758C19.3446 27.6587 21.809 28.6843 24.5125 28.6836C30.2942 28.6814 34.9796 23.9924 34.9782 18.2114C34.9782 18.2092 34.9782 18.2078 34.9782 18.2063C34.9789 12.4252 30.2906 7.73842 24.5088 7.73987ZM16.5357 11.5282H18.5255C18.8188 11.8835 19.0911 12.2577 19.3381 12.6492H15.7881C16.0171 12.275 16.2684 11.89 16.5357 11.5282ZM15.1699 13.7484H19.9419C20.1117 14.111 20.2619 14.4859 20.3933 14.8701H14.6043C14.6621 14.7618 14.8644 14.3255 15.1699 13.7484ZM4.27368 20.878L4.90856 16.8752L3.47629 20.878H2.70852L2.60885 16.8752L1.93063 20.878H0.85517L1.74645 15.5693H3.37301L3.43007 18.8267L4.52864 15.5693H6.29315L5.41415 20.878H4.27368ZM8.07644 20.8693L8.11328 20.4454C8.09594 20.4475 7.75648 20.9574 6.96992 20.9574C6.55823 20.9574 5.89374 20.7328 5.89374 19.7563C5.89374 18.5147 6.90636 18.103 7.8706 18.103C8.02227 18.103 8.34946 18.1305 8.34946 18.1305C8.34946 18.1305 8.3863 18.0546 8.3863 17.8495C8.3863 17.5122 8.08294 17.466 7.66764 17.466C6.93598 17.466 6.45278 17.6617 6.45278 17.6617L6.61457 16.7011C6.61457 16.7011 7.20105 16.4555 7.96449 16.4555C8.35957 16.4555 9.49571 16.4974 9.49571 17.7997L9.05801 20.8693H8.07644ZM12.2245 19.5172C12.2245 20.9986 10.7893 20.9351 10.5387 20.9351C9.60333 20.9351 9.31442 20.8058 9.28769 20.7985L9.43648 19.8235C9.43793 19.8148 9.90596 19.9932 10.4267 19.9932C10.7272 19.9932 11.1172 19.9636 11.1172 19.6046C11.1172 19.0673 9.72178 19.1958 9.72178 17.9196C9.72178 16.7935 10.5582 16.4642 11.383 16.4642C12.02 16.4642 12.4115 16.5516 12.4115 16.5516L12.2707 17.5353C12.2707 17.5353 11.6661 17.4855 11.5094 17.4855C11.1129 17.4855 10.8969 17.5722 10.8969 17.8495C10.8962 18.4071 12.2245 18.1341 12.2245 19.5172ZM13.9478 19.9058C14.0467 19.9058 14.1587 19.8719 14.2353 19.8719L14.0959 20.8188C13.9839 20.8498 13.6668 20.9625 13.2602 20.9654C12.7409 20.9697 12.3718 20.6794 12.3718 20.0207C12.3718 19.5786 13.0052 15.9362 13.0298 15.9124H14.1442L14.0309 16.5639H14.587L14.4447 17.6133H13.8546L13.5412 19.5468C13.5173 19.7007 13.5599 19.9058 13.9478 19.9058ZM16.3992 16.4411C17.6227 16.4411 17.9889 17.3367 17.9889 18.0712C17.9889 18.3652 17.8416 19.0875 17.8416 19.0875H15.5765C15.5765 19.0875 15.3671 19.9795 16.5639 19.9795C17.1251 19.9795 17.7477 19.705 17.7477 19.705L17.5512 20.779C17.5512 20.779 17.1915 20.9625 16.3739 20.9625C15.4877 20.9625 14.4483 20.5876 14.4483 19.0131C14.449 17.6487 15.2782 16.4411 16.3992 16.4411ZM19.3511 23.7526H15.6372C15.4111 23.3915 15.2002 23.021 15.0189 22.6317H19.9614C19.7794 23.0188 19.5757 23.3929 19.3511 23.7526ZM19.1019 20.8859H17.9578L18.6534 16.5653H19.6913L19.5916 17.1915C19.5916 17.1915 19.9614 16.5104 20.4605 16.5104C20.6057 16.5104 20.6758 16.5249 20.6758 16.5249C20.5277 16.8268 20.397 17.1034 20.2612 17.8177C19.4869 17.5433 19.4277 19.0405 19.1019 20.8859ZM23.4608 20.8188C23.4608 20.8188 22.8613 20.9719 22.4858 20.9719C21.1553 20.9719 20.48 20.0539 20.48 18.6635C20.48 16.5668 21.7317 15.4501 23.0181 15.4501C23.5995 15.4501 24.2734 15.7231 24.2734 15.7231L24.0914 16.9041C24.0914 16.9041 23.6356 16.5855 23.0686 16.5855C22.3103 16.5855 21.6299 17.3092 21.6299 18.6245C21.6299 19.2724 21.947 19.8762 22.7386 19.8762C23.1149 19.8762 23.6602 19.6025 23.6602 19.6025L23.4608 20.8188ZM26.1441 20.8715L26.1816 20.4446C26.1636 20.4468 25.8241 20.9567 25.0383 20.9567C24.6266 20.9567 23.9621 20.7321 23.9621 19.7556C23.9621 18.514 24.9747 18.1023 25.9382 18.1023C26.0899 18.1023 26.4178 18.1297 26.4178 18.1297C26.4178 18.1297 26.4554 18.0546 26.4554 17.8495C26.4554 17.5122 26.152 17.466 25.736 17.466C25.0043 17.466 24.5219 17.6617 24.5219 17.6617L24.6836 16.7011C24.6836 16.7011 25.2701 16.4555 26.0343 16.4555C26.4286 16.4555 27.5655 16.4974 27.5648 17.7997L27.1271 20.8693C27.1264 20.8715 26.1441 20.8715 26.1441 20.8715ZM28.4604 20.8859H27.3163L28.0119 16.5653H29.0505L28.9508 17.1915C28.9508 17.1915 29.3213 16.5104 29.8204 16.5104C29.9656 16.5104 30.035 16.5249 30.035 16.5249C29.8876 16.8268 29.7554 17.1034 29.6204 17.8177C28.8454 17.5433 28.7861 19.0405 28.4604 20.8859ZM31.876 20.8744L31.9244 20.4764C31.9244 20.4764 31.5546 20.943 30.8858 20.943C29.9591 20.943 29.5048 20.0481 29.5048 19.1337C29.5048 17.7195 30.3556 16.4866 31.3769 16.4866C32.0342 16.488 32.4538 17.068 32.4538 17.068L32.6951 15.5765L33.8124 15.5744L32.9602 20.8744H31.876ZM34.0804 20.7249C34.0508 20.7783 34.0089 20.8195 33.9554 20.8513C33.9027 20.8809 33.8464 20.8961 33.7872 20.8961C33.7294 20.8961 33.6738 20.8809 33.6203 20.8513C33.5669 20.8195 33.525 20.7783 33.4954 20.7249C33.465 20.6707 33.4506 20.6158 33.4506 20.5573C33.4506 20.4981 33.4657 20.4417 33.4954 20.3883C33.525 20.3348 33.569 20.2915 33.6217 20.2626C33.6766 20.233 33.7308 20.2178 33.7872 20.2178C33.8449 20.2178 33.8998 20.233 33.9533 20.2626C34.0082 20.2922 34.0501 20.3334 34.0804 20.3883C34.1115 20.4425 34.1252 20.4988 34.1252 20.5573C34.1252 20.6158 34.1107 20.6714 34.0804 20.7249Z" fill="#5B6460"/>
<path d="M33.9908 23.9195C33.9836 23.9144 33.9771 23.9065 33.9655 23.9021C33.954 23.8978 33.9359 23.8956 33.9077 23.8956H33.8398V24.004H33.9121C33.946 24.004 33.9684 24.0011 33.9814 23.9888C33.9937 23.9787 33.9995 23.9664 33.9995 23.9491C33.9995 23.9375 33.9966 23.9296 33.9908 23.9195Z" fill="#5B6460"/>
<path d="M34.224 23.8545C34.193 23.7982 34.1504 23.7585 34.0962 23.7289C34.042 23.6992 33.9871 23.6841 33.9308 23.6841C33.873 23.6841 33.8181 23.6992 33.7647 23.7289C33.7112 23.7585 33.6672 23.7996 33.6376 23.8545C33.6065 23.908 33.5928 23.9643 33.5928 24.0221C33.5928 24.0799 33.6079 24.1369 33.6376 24.1897C33.6686 24.2431 33.7105 24.2865 33.7632 24.3161C33.8167 24.3457 33.873 24.3609 33.9322 24.3609C33.99 24.3609 34.0464 24.3457 34.0991 24.3161C34.1518 24.2865 34.1944 24.2431 34.224 24.1897C34.2544 24.1369 34.2688 24.0806 34.2688 24.0221C34.2688 23.9636 34.2537 23.9073 34.224 23.8545ZM34.016 24.2099L33.9842 24.1528C33.959 24.1081 33.938 24.0784 33.9221 24.0669C33.912 24.0597 33.8961 24.0539 33.8759 24.0539H33.842V24.2092H33.7827V23.8444H33.9084C33.9517 23.8444 33.9828 23.848 34.0001 23.8553C34.0196 23.8625 34.0363 23.8726 34.0464 23.8907C34.0579 23.9073 34.063 23.9253 34.063 23.9441C34.063 23.9708 34.0529 23.9932 34.0348 24.0142C34.016 24.0329 33.99 24.0452 33.959 24.0474C33.972 24.0517 33.9821 24.0589 33.99 24.0669C34.0052 24.0813 34.0225 24.1052 34.0442 24.1384L34.089 24.2099H34.016Z" fill="#5B6460"/>
<path d="M7.96081 18.9315C7.14392 18.9315 6.97852 19.2984 6.97852 19.604C6.97852 19.7614 7.0688 20.0243 7.41477 20.0243C8.08576 20.0243 8.22516 19.1446 8.20349 18.9575C8.17171 18.951 8.15149 18.9322 7.96081 18.9315Z" fill="#5B6460"/>
<path d="M16.4034 17.4386C15.796 17.4386 15.679 18.1298 15.679 18.2028H16.9162C16.9162 18.1471 17.0325 17.4386 16.4034 17.4386Z" fill="#5B6460"/>
<path d="M31.5697 17.5592C31.0793 17.5592 30.6914 18.1284 30.6921 18.9929C30.6921 19.5202 30.8799 19.8582 31.2815 19.8582C31.8853 19.8582 32.1764 19.0702 32.1764 18.483C32.1764 17.8351 31.9706 17.5592 31.5697 17.5592Z" fill="#5B6460"/>
<path d="M34.0297 20.4172C34.0045 20.3724 33.9691 20.3377 33.9243 20.3125C33.8795 20.2872 33.834 20.2749 33.7863 20.2749C33.7401 20.2749 33.6932 20.2879 33.6484 20.3125C33.6036 20.3356 33.5682 20.3717 33.5429 20.4172C33.5176 20.4627 33.5046 20.5111 33.5046 20.558C33.5046 20.6064 33.5176 20.6541 33.5415 20.6982C33.5682 20.7429 33.6021 20.7769 33.6469 20.8036C33.6917 20.8282 33.7379 20.8426 33.7863 20.8426C33.8347 20.8426 33.8824 20.8282 33.9257 20.8036C33.9705 20.7783 34.0052 20.7437 34.0312 20.6982C34.0565 20.6534 34.068 20.6064 34.068 20.558C34.068 20.5104 34.055 20.4627 34.0297 20.4172ZM33.873 20.7437L33.8405 20.6873C33.8152 20.6418 33.795 20.6129 33.7798 20.6021C33.7675 20.5927 33.7531 20.5884 33.7322 20.5884H33.6989V20.7429H33.6383V20.3789H33.7647C33.8073 20.3789 33.839 20.3825 33.8571 20.3905C33.8752 20.397 33.8911 20.4092 33.9033 20.4251C33.9156 20.441 33.9199 20.4591 33.9199 20.4786C33.9199 20.5053 33.9098 20.5277 33.8911 20.5479C33.8723 20.5689 33.8463 20.5775 33.8159 20.5811C33.8304 20.5869 33.8398 20.5934 33.847 20.5999C33.8622 20.6151 33.8795 20.6368 33.9004 20.6714L33.9452 20.7437H33.873Z" fill="#5B6460"/>
<path d="M26.0299 18.9315C25.213 18.9315 25.0476 19.2984 25.0476 19.604C25.0476 19.7614 25.1372 20.0243 25.4839 20.0243C26.1548 20.0243 26.2935 19.1446 26.2726 18.9575C26.2401 18.951 26.2199 18.9322 26.0299 18.9315Z" fill="#5B6460"/>
<path d="M33.8485 20.4534C33.8427 20.4462 33.8348 20.4404 33.8239 20.4353C33.8116 20.4317 33.7936 20.4281 33.7647 20.4281V20.4288H33.699V20.5386H33.7705C33.8044 20.5386 33.8268 20.5343 33.8405 20.5234C33.8514 20.5126 33.8579 20.4989 33.8579 20.483C33.8579 20.4707 33.855 20.4635 33.8485 20.4534Z" fill="#5B6460"/>
</g>
<defs>
<clipPath id="clip0_285_1827">
<rect width="34.9782" height="34.9782" fill="white" transform="translate(0 0.72229)"/>
</clipPath>
</defs>
</svg>
