<svg width="35" height="36" viewBox="0 0 35 36" fill="none" xmlns="http://www.w3.org/2000/svg">
<g clip-path="url(#clip0_285_1811)">
<path d="M13.8337 12.8557L12.0779 23.1596H14.8861L16.6434 12.8557H13.8337Z" fill="#5B6460"/>
<path d="M9.72312 12.8673L6.9727 19.8943L6.67946 18.8332C6.13704 17.5548 4.59715 15.7188 2.78931 14.5617L5.30426 23.1546L8.27568 23.1495L12.6982 12.8651L9.72312 12.8673Z" fill="#5B6460"/>
<path d="M5.6135 13.6047C5.45026 12.977 4.97718 12.79 4.38997 12.7676H0.0361136L0 12.9727C3.38818 13.7946 5.63011 15.7751 6.56039 18.1564L5.6135 13.6047Z" fill="#5B6460"/>
<path d="M22.3348 14.8312C23.2535 14.8168 23.9195 15.0175 24.4366 15.2256L24.6901 15.3447L25.0701 13.1115C24.5139 12.9027 23.6421 12.6788 22.5544 12.6788C19.7794 12.6788 17.8235 14.0764 17.8083 16.0793C17.7903 17.5592 19.2016 18.3855 20.2677 18.8788C21.3619 19.3844 21.7288 19.7058 21.7238 20.1572C21.7151 20.847 20.8513 21.1634 20.0445 21.1634C18.9199 21.1634 18.3226 21.0081 17.4003 20.6238L17.0384 20.4591L16.6433 22.7654C17.3006 23.0535 18.5133 23.3013 19.7722 23.3143C22.7241 23.3143 24.6425 21.9333 24.6627 19.7932C24.675 18.6224 23.926 17.729 22.303 16.9959C21.3207 16.5177 20.7198 16.1999 20.7256 15.7174C20.7256 15.2891 21.2355 14.8312 22.3348 14.8312Z" fill="#5B6460"/>
<path d="M32.277 12.8673H30.1072C29.4334 12.8673 28.9321 13.0508 28.636 13.7225L24.4663 23.1655H27.4153C27.4153 23.1655 27.8964 21.8957 28.0054 21.6176C28.3283 21.6176 31.1935 21.622 31.6016 21.622C31.6854 21.9817 31.944 23.1655 31.944 23.1655H34.5492L32.277 12.8673ZM28.8137 19.5086C29.0448 18.9171 29.9325 16.6289 29.9325 16.6289C29.9173 16.6571 30.1614 16.033 30.3066 15.6452L30.4958 16.5336C30.4958 16.5336 31.0339 18.9936 31.1466 19.5086H28.8137Z" fill="#5B6460"/>
</g>
<defs>
<clipPath id="clip0_285_1811">
<rect width="34.5491" height="34.5491" fill="white" transform="translate(0 0.72229)"/>
</clipPath>
</defs>
</svg>
