<svg width="24" height="24" viewBox="0 0 24 24" fill="none" xmlns="http://www.w3.org/2000/svg">
<g clip-path="url(#clip0_285_1768)">
<path d="M4.2274 16.5362C4.46863 16.4156 4.93667 16.1823 4.93667 15.351C4.93667 14.7544 4.57409 13.8667 3.15482 13.8667H0.343018V19.6543H2.79369C3.97893 19.6543 4.29312 19.4528 4.6232 19.1285C4.928 18.8323 5.12157 18.3953 5.12157 17.9381C5.12157 17.3654 4.93667 16.8013 4.2274 16.5362ZM1.50443 14.8685H2.89119C3.43867 14.8685 3.77742 15.0129 3.77742 15.4882C3.77742 15.949 3.39967 16.1339 2.92225 16.1339H1.50443V14.8685ZM2.98581 18.6546H1.50443V17.1068H3.04359C3.47984 17.1068 3.91393 17.3025 3.91393 17.8081C3.91248 18.3953 3.57374 18.6546 2.98581 18.6546Z" fill="#5B6460"/>
<path d="M0.34375 20.5708V21.0966H1.23937V23.5357H1.85691V21.0966H2.75469V20.5708H0.34375Z" fill="#5B6460"/>
<path d="M20.2713 16.2365L22.6331 13.866H21.0701L18.8614 16.2184V13.866H17.6523V19.6521H18.8614V17.694L19.4255 17.1133L21.2139 19.6521H22.7696L20.2713 16.2365Z" fill="#5B6460"/>
<path d="M8.928 13.866H7.53402L5.47266 19.6528H6.7453L7.1476 18.4611H9.28336L9.65461 19.6521H10.9677L8.928 13.866ZM7.46974 17.46L8.21151 15.1718H8.22812L8.94462 17.46H7.46974Z" fill="#5B6460"/>
<path d="M14.3218 2.52634C13.9592 2.09803 13.5598 1.69862 13.0903 1.35265C12.8578 1.17786 12.6093 1.01679 12.337 0.872336C12.0625 0.730771 11.7816 0.594262 11.4457 0.500366C11.4515 0.849223 11.5122 1.15619 11.5837 1.45665C11.6516 1.74845 11.7433 2.02219 11.8502 2.2851C11.5945 2.36022 11.2839 2.46567 10.9344 2.60145C10.7083 2.70257 10.4605 2.79358 10.2106 2.92864C9.95712 3.04999 9.69999 3.19733 9.43925 3.36201C9.17418 3.51152 8.92716 3.72387 8.66787 3.90732C8.43168 4.13195 8.17239 4.32624 7.96221 4.5812C7.7448 4.82533 7.53245 5.06946 7.3685 5.34681C7.28544 5.48187 7.18937 5.60683 7.12004 5.74478C7.05359 5.8849 6.99003 6.0243 6.92791 6.16009C6.78707 6.423 6.72279 6.70613 6.64912 6.96398C6.56172 7.21966 6.53066 7.47029 6.50683 7.70142C6.48733 7.93182 6.43893 8.1355 6.45049 8.32329C6.45627 8.50819 6.4606 8.66854 6.46494 8.80144C6.47288 9.06362 6.47505 9.21313 6.47505 9.21313C6.47505 9.21313 6.50322 9.06507 6.55089 8.80721C6.57472 8.67937 6.60433 8.52553 6.63828 8.34785C6.66501 8.17089 6.75673 7.9831 6.82029 7.77581C6.88819 7.56852 6.96692 7.3475 7.09692 7.13515C7.21538 6.9192 7.323 6.6859 7.49778 6.48439C7.57651 6.3811 7.65741 6.27421 7.73758 6.16803C7.82209 6.06475 7.93043 5.97591 8.0236 5.87912C8.20706 5.67906 8.43096 5.51727 8.6527 5.35692C8.86432 5.18863 9.12217 5.07524 9.34536 4.93728C9.5996 4.83544 9.8235 4.70832 10.0734 4.63465C10.3118 4.54798 10.5465 4.47503 10.7762 4.42302C10.9994 4.35802 11.224 4.32913 11.4197 4.28724C11.5454 4.26918 11.661 4.25401 11.7722 4.24029C11.7592 4.27351 11.7455 4.30529 11.7339 4.33924C11.6198 4.65198 11.531 4.98062 11.4688 5.32659C11.4407 5.5021 11.4176 5.67978 11.3995 5.86107C11.3851 6.04525 11.3822 6.23593 11.3952 6.43672C11.5837 6.36449 11.7549 6.28287 11.9174 6.19403C12.0741 6.10231 12.2279 6.00697 12.3746 5.90874C12.6656 5.70867 12.9278 5.49126 13.1647 5.25869C13.6443 4.79499 14.0408 4.27713 14.3738 3.72025L14.4164 3.64947C14.6208 3.3035 14.597 2.85064 14.3218 2.52634Z" fill="#5B6460"/>
<path d="M5.47333 22.8654C5.47333 22.3122 5.34043 22.2212 5.09703 22.1143C5.39027 22.0153 5.55567 21.7358 5.55567 21.4072C5.55567 21.1515 5.41194 20.5701 4.62322 20.5701H3.12378V23.5335H3.73193V22.3743H4.37114C4.82979 22.3743 4.85507 22.5318 4.85507 22.9348C4.85507 23.2396 4.8789 23.3942 4.92007 23.5328H5.60551V23.4555C5.47333 23.4064 5.47333 23.2981 5.47333 22.8654ZM4.45565 21.8767H3.73121V21.0822H4.5026C4.86518 21.0822 4.93596 21.3118 4.93596 21.47C4.93524 21.7618 4.77923 21.8767 4.45565 21.8767Z" fill="#5B6460"/>
<path d="M16.8571 21.0966V20.5708H14.748V23.5364H15.3678V22.2898H16.6722V21.7654H15.3678V21.0966H16.8571Z" fill="#5B6460"/>
<path d="M17.8799 23.0099V22.2443H19.3244V21.72H17.8799V21.0974H19.4537V20.5723H17.2732V23.5357H19.5231V23.0099H17.8799Z" fill="#5B6460"/>
<path d="M13.4999 21.8457L12.7791 21.668C12.6548 21.6384 12.4642 21.5886 12.4642 21.3575C12.4642 21.0895 12.7466 21.0035 12.9806 21.0035C13.5223 21.0035 13.5721 21.3163 13.5887 21.4485H14.181C14.1767 21.0852 13.934 20.4915 13.0254 20.4915C12.0633 20.4915 11.8863 21.0729 11.8863 21.403C11.8863 22.0559 12.3479 22.165 12.8275 22.2747L13.1445 22.3499C13.4573 22.4257 13.6812 22.4864 13.6812 22.7189C13.6812 23.0288 13.354 23.101 13.0629 23.101C12.5212 23.101 12.4381 22.7876 12.4338 22.6222H11.8416C11.8416 22.9912 12.0257 23.6131 13.1077 23.6131C13.3663 23.6131 14.2756 23.5322 14.2756 22.6431C14.2749 22.1108 13.9036 21.9439 13.4999 21.8457Z" fill="#5B6460"/>
<path d="M22.3774 22.8654C22.3774 22.3122 22.2431 22.2212 22.0011 22.1143C22.2929 22.0153 22.4612 21.7358 22.4612 21.4072C22.4612 21.1515 22.316 20.5701 21.5273 20.5701H20.0293V23.5335H20.6374V22.3743H21.2767C21.7339 22.3743 21.7606 22.5318 21.7606 22.9348C21.7606 23.2396 21.7844 23.3942 21.8263 23.5328H22.5096V23.4555C22.3774 23.4064 22.3774 23.2981 22.3774 22.8654ZM21.3619 21.8767H20.6367V21.0822H21.4067C21.7707 21.0822 21.8415 21.3118 21.8415 21.47C21.8415 21.7618 21.6847 21.8767 21.3619 21.8767Z" fill="#5B6460"/>
<path d="M15.2724 13.8682V17.897H15.2572L12.9596 13.8682H11.6863V19.655H12.8145L12.8159 15.5294H12.8311L15.1929 19.6557H16.4005V13.8682H15.2724Z" fill="#5B6460"/>
<path d="M7.56518 20.5708H6.84941L5.79272 23.5343H6.44566L6.65151 22.9225H7.74502L7.93571 23.5343H8.60886L7.56518 20.5708ZM6.81763 22.4111L7.19827 21.2396H7.20404L7.57385 22.4111H6.81763Z" fill="#5B6460"/>
<path d="M10.8167 20.5708L10.816 22.6336H10.8088L9.63074 20.5708H8.97925V23.5343H9.55634V21.4202H9.56573L10.7748 23.5343H11.3952V20.5708H10.8167Z" fill="#5B6460"/>
<path d="M15.8589 4.58835C15.8451 4.32689 15.8336 4.1781 15.8336 4.1781C15.8336 4.1781 15.8126 4.32617 15.7686 4.58546C15.7476 4.7133 15.7238 4.86859 15.6956 5.04699C15.674 5.22467 15.588 5.41463 15.5302 5.62409C15.4703 5.83355 15.3988 6.05601 15.2745 6.27269C15.1633 6.49226 15.0629 6.72772 14.8939 6.93501C14.8188 7.04119 14.7415 7.14953 14.6649 7.25931C14.5819 7.36404 14.4779 7.45649 14.3847 7.55617C14.2085 7.76057 13.9896 7.9303 13.7722 8.09643C13.5678 8.27121 13.3121 8.39111 13.0926 8.53629C12.8427 8.64535 12.6224 8.77969 12.3746 8.85987C12.1399 8.95448 11.9066 9.03393 11.6784 9.09244C11.4581 9.16467 11.2356 9.20006 11.0406 9.247C10.9156 9.26939 10.7993 9.28817 10.6896 9.30479C10.6997 9.27084 10.7134 9.23906 10.725 9.20511C10.829 8.88803 10.9084 8.55723 10.9604 8.20982C10.9828 8.03359 10.9994 7.85519 11.0124 7.67317C11.0218 7.48899 11.0189 7.29759 11.0009 7.09825C10.8145 7.17481 10.6455 7.2622 10.4859 7.3561C10.3306 7.45216 10.1825 7.55183 10.0374 7.65439C9.75422 7.86313 9.49854 8.08776 9.26885 8.32827C8.80371 8.8057 8.42307 9.33512 8.10672 9.9021L8.06555 9.97289C7.87126 10.3254 7.90882 10.7768 8.19411 11.0931C8.56969 11.5099 8.98139 11.8977 9.45953 12.2293C9.69644 12.3976 9.94996 12.5507 10.228 12.6865C10.5047 12.8208 10.7892 12.9494 11.1294 13.0324C11.1114 12.685 11.0406 12.3802 10.9633 12.0819C10.886 11.7923 10.7871 11.5207 10.6715 11.2614C10.9257 11.1784 11.2313 11.0642 11.5772 10.9183C11.7997 10.8114 12.0445 10.7118 12.2908 10.5695C12.5393 10.4416 12.7935 10.2864 13.0456 10.1137C13.3056 9.95628 13.5469 9.7367 13.8018 9.5453C14.0308 9.3149 14.2843 9.11122 14.4873 8.8512C14.6974 8.60057 14.9011 8.35139 15.0571 8.06898C15.1366 7.93103 15.2269 7.80318 15.2933 7.66306C15.354 7.52077 15.4147 7.37993 15.4724 7.24198C15.6053 6.97474 15.6617 6.68944 15.7281 6.43014C15.8061 6.17302 15.8321 5.92094 15.848 5.68982C15.8632 5.45941 15.9029 5.25356 15.887 5.06649C15.8748 4.88232 15.8661 4.72125 15.8589 4.58835Z" fill="#5B6460"/>
</g>
<defs>
<clipPath id="clip0_285_1768">
<rect width="23.1127" height="23.1127" fill="white" transform="translate(0 0.500366)"/>
</clipPath>
</defs>
</svg>
