<svg width="21" height="21" viewBox="0 0 21 21" fill="none" xmlns="http://www.w3.org/2000/svg">
<g clip-path="url(#clip0_2_862)">
<path d="M10.5035 5.10828C7.52586 5.10828 5.11523 7.52153 5.11523 10.4965C5.11523 13.4742 7.52848 15.8848 10.5035 15.8848C13.4811 15.8848 15.8917 13.4715 15.8917 10.4965C15.8917 7.5189 13.4785 5.10828 10.5035 5.10828ZM10.5035 13.9939C8.57061 13.9939 7.00611 12.4285 7.00611 10.4965C7.00611 8.56453 8.57148 6.99915 10.5035 6.99915C12.4355 6.99915 14.0009 8.56453 14.0009 10.4965C14.0017 12.4285 12.4364 13.9939 10.5035 13.9939Z" fill="#E9ECE0"/>
<path d="M14.8296 0.0664516C12.8976 -0.0236734 8.1122 -0.0192984 6.17845 0.0664516C4.4792 0.146077 2.98033 0.556451 1.77195 1.76483C-0.247548 3.78433 0.0105768 6.50558 0.0105768 10.4965C0.0105768 14.581 -0.216923 17.2392 1.77195 19.2281C3.79933 21.2546 6.55995 20.9895 10.5036 20.9895C14.5496 20.9895 15.9461 20.9921 17.3767 20.4382C19.3218 19.6831 20.7901 17.9445 20.9336 14.8216C21.0246 12.8887 21.0193 8.1042 20.9336 6.17045C20.7603 2.48408 18.7819 0.248452 14.8296 0.0664516ZM17.8877 17.892C16.5638 19.2158 14.7272 19.0977 10.4782 19.0977C6.1032 19.0977 4.34883 19.1625 3.0687 17.8788C1.59433 16.4115 1.8612 14.0551 1.8612 10.4825C1.8612 5.64808 1.36508 2.16645 6.21695 1.91795C7.3317 1.87858 7.65983 1.86545 10.466 1.86545L10.5053 1.8917C15.1682 1.8917 18.8266 1.40345 19.0462 6.25445C19.0961 7.36133 19.1075 7.69383 19.1075 10.4956C19.1066 14.8198 19.1888 16.5847 17.8877 17.892Z" fill="#E9ECE0"/>
<path d="M16.1052 6.1546C16.8006 6.1546 17.3643 5.59087 17.3643 4.89547C17.3643 4.20008 16.8006 3.63635 16.1052 3.63635C15.4098 3.63635 14.8461 4.20008 14.8461 4.89547C14.8461 5.59087 15.4098 6.1546 16.1052 6.1546Z" fill="#E9ECE0"/>
</g>
<defs>
<clipPath id="clip0_2_862">
<rect width="21" height="21" fill="white"/>
</clipPath>
</defs>
</svg>
