<svg width="22" height="18" viewBox="0 0 22 18" fill="none" xmlns="http://www.w3.org/2000/svg">
<path d="M21.0459 2.02038C20.2735 2.36289 19.4426 2.59456 18.5712 2.69802C19.4609 2.16497 20.1437 1.32154 20.4659 0.314881C19.6334 0.80873 18.711 1.16699 17.73 1.36009C16.9441 0.523089 15.8243 0 14.5844 0C12.2054 0 10.276 1.92945 10.276 4.30841C10.276 4.6461 10.3142 4.9748 10.3881 5.29033C6.80749 5.11071 3.63265 3.39558 1.50753 0.788167C1.13674 1.42436 0.924031 2.16497 0.924031 2.95442C0.924031 4.44882 1.68521 5.76811 2.84063 6.54053C2.13472 6.51836 1.46993 6.32461 0.88933 6.00106C0.889009 6.01937 0.889008 6.03769 0.889008 6.05568C0.889008 8.14321 2.37473 9.88438 4.34531 10.2799C3.98416 10.3789 3.60277 10.4312 3.21045 10.4312C2.9322 10.4312 2.66262 10.4046 2.3998 10.3544C2.94795 12.0657 4.53874 13.3114 6.42449 13.3465C4.94969 14.5022 3.09221 15.1908 1.07312 15.1908C0.726105 15.1908 0.382307 15.1705 0.0458984 15.1304C1.95157 16.3533 4.21679 17.0662 6.64973 17.0662C14.5744 17.0662 18.9082 10.5013 18.9082 4.8074C18.9082 4.62072 18.9041 4.43468 18.8957 4.25025C19.7382 3.64298 20.4685 2.88438 21.0459 2.02038Z" fill="#E9ECE0"/>
</svg>
