<svg width="72" height="66" viewBox="0 0 72 66" fill="none" xmlns="http://www.w3.org/2000/svg">
<path d="M5.22822 59.8488V59.0285H1V59.8488H2.65746V65.0495H3.57076V59.8488H5.22822Z" fill="white"/>
<path d="M10.8735 65.0495V59.0285H9.96019V61.5993H7.51628V59.0285H6.60299V65.0495H7.51628V62.4196H9.96019V65.0495H10.8735Z" fill="white"/>
<path d="M16.6358 65.0495V64.2292H13.7014V62.4196H16.2045V61.6077H13.7014V59.8488H16.6358V59.0285H12.7881V65.0495H16.6358Z" fill="white"/>
<path d="M24.7351 62.7155V61.7938H22.5364V62.5718H23.8218V62.91C23.8218 63.1073 23.7993 63.2821 23.7542 63.4343C23.7091 63.5865 23.6301 63.7275 23.5174 63.8571C23.399 63.9925 23.2552 64.0967 23.0861 64.17C22.917 64.2433 22.7338 64.28 22.5364 64.28C22.356 64.28 22.1897 64.249 22.0375 64.187C21.8853 64.1193 21.7556 64.0291 21.6485 63.9163C21.5752 63.8374 21.5132 63.7529 21.4625 63.6627C21.4174 63.5668 21.3807 63.4512 21.3525 63.3159C21.33 63.175 21.3131 63.003 21.3018 62.8001C21.2905 62.5971 21.2849 62.3434 21.2849 62.039C21.2849 61.7346 21.2905 61.4837 21.3018 61.2864C21.3131 61.0834 21.33 60.9143 21.3525 60.779C21.3807 60.6381 21.4174 60.5225 21.4625 60.4323C21.5132 60.3365 21.5752 60.2491 21.6485 60.1701C21.7556 60.0574 21.8853 59.9672 22.0375 59.8995C22.1897 59.8319 22.356 59.7981 22.5364 59.7981C22.8747 59.7981 23.1509 59.8911 23.3652 60.0771C23.5794 60.2575 23.726 60.514 23.8049 60.8467H24.7267C24.6816 60.5873 24.6026 60.3449 24.4899 60.1194C24.3771 59.8939 24.2277 59.6966 24.0417 59.5275C23.8613 59.3583 23.6442 59.2258 23.3905 59.13C23.1425 59.0285 22.8578 58.9778 22.5364 58.9778C22.2151 58.9778 21.9219 59.0342 21.657 59.1469C21.3976 59.254 21.1637 59.4119 20.9551 59.6205C20.8085 59.7671 20.6958 59.9221 20.6168 60.0856C20.5379 60.2491 20.4787 60.4267 20.4392 60.6183C20.4054 60.81 20.3857 61.0242 20.38 61.261C20.3744 61.4922 20.3716 61.7515 20.3716 62.039C20.3716 62.3265 20.3744 62.5887 20.38 62.8255C20.3857 63.0566 20.4054 63.268 20.4392 63.4597C20.4787 63.6514 20.5379 63.829 20.6168 63.9925C20.6958 64.1559 20.8085 64.311 20.9551 64.4576C21.1637 64.6661 21.4005 64.8268 21.6654 64.9396C21.9304 65.0467 22.2207 65.1002 22.5364 65.1002C22.8578 65.1002 23.1566 65.0467 23.4328 64.9396C23.7091 64.8325 23.9628 64.6577 24.1939 64.4153C24.3912 64.201 24.5293 63.9614 24.6083 63.6965C24.6928 63.4315 24.7351 63.1045 24.7351 62.7155Z" fill="white"/>
<path d="M30.2353 65.0495V64.2292H27.3347V59.0285H26.4214V65.0495H30.2353Z" fill="white"/>
<path d="M36.0467 65.0495L33.8396 59.0285H33.1039L30.8968 65.0495H31.8692L32.2836 63.8402H34.6599L35.0742 65.0495H36.0467ZM34.4062 63.0622H32.5542L33.4929 60.39L34.4062 63.0622Z" fill="white"/>
<path d="M41.0022 63.3328C41.0022 63.0735 40.9599 62.8396 40.8754 62.631C40.7964 62.4224 40.6752 62.2448 40.5117 62.0982C40.3821 61.9855 40.2327 61.8953 40.0635 61.8276C39.8944 61.7543 39.6689 61.6951 39.387 61.65L38.702 61.5485C38.4089 61.5034 38.1834 61.4104 38.0255 61.2695C37.9466 61.1962 37.8874 61.1144 37.8479 61.0242C37.8141 60.9284 37.7972 60.8241 37.7972 60.7114C37.7972 60.4407 37.8902 60.2181 38.0763 60.0433C38.2679 59.8629 38.5414 59.7727 38.8965 59.7727C39.1502 59.7727 39.3842 59.8065 39.5984 59.8742C39.8183 59.9362 40.0213 60.0574 40.2073 60.2378L40.7908 59.6628C40.5315 59.4203 40.2552 59.2456 39.9621 59.1385C39.6689 59.0313 39.3222 58.9778 38.9219 58.9778C38.6062 58.9778 38.3243 59.0201 38.0763 59.1046C37.8282 59.1892 37.6168 59.3104 37.442 59.4683C37.2729 59.6261 37.1404 59.815 37.0446 60.0348C36.9544 60.2491 36.9093 60.4858 36.9093 60.7452C36.9093 61.2357 37.0559 61.619 37.349 61.8953C37.6196 62.1489 38.0002 62.3096 38.4906 62.3773L39.201 62.4787C39.3814 62.5069 39.5167 62.5379 39.6069 62.5718C39.6971 62.6056 39.7817 62.6592 39.8606 62.7324C40.0184 62.8734 40.0974 63.082 40.0974 63.3582C40.0974 63.6514 39.9874 63.8797 39.7676 64.0432C39.5533 64.201 39.2489 64.28 38.8543 64.28C38.5442 64.28 38.2651 64.2405 38.0171 64.1616C37.769 64.077 37.5351 63.9248 37.3152 63.7049L36.7063 64.3053C36.9938 64.5985 37.3067 64.8043 37.645 64.9227C37.9832 65.0411 38.3807 65.1002 38.8373 65.1002C39.1531 65.1002 39.4434 65.0608 39.7084 64.9819C39.9733 64.9029 40.2017 64.7874 40.3933 64.6351C40.585 64.4829 40.7344 64.2969 40.8415 64.077C40.9486 63.8571 41.0022 63.6091 41.0022 63.3328Z" fill="white"/>
<path d="M46.2458 63.3328C46.2458 63.0735 46.2036 62.8396 46.119 62.631C46.0401 62.4224 45.9189 62.2448 45.7554 62.0982C45.6257 61.9855 45.4763 61.8953 45.3072 61.8276C45.1381 61.7543 44.9125 61.6951 44.6307 61.65L43.9457 61.5485C43.6525 61.5034 43.427 61.4104 43.2692 61.2695C43.1903 61.1962 43.1311 61.1144 43.0916 61.0242C43.0578 60.9284 43.0409 60.8241 43.0409 60.7114C43.0409 60.4407 43.1339 60.2181 43.3199 60.0433C43.5116 59.8629 43.785 59.7727 44.1402 59.7727C44.3939 59.7727 44.6278 59.8065 44.8421 59.8742C45.0619 59.9362 45.2649 60.0574 45.4509 60.2378L46.0344 59.6628C45.7751 59.4203 45.4989 59.2456 45.2057 59.1385C44.9125 59.0313 44.5658 58.9778 44.1656 58.9778C43.8499 58.9778 43.568 59.0201 43.3199 59.1046C43.0719 59.1892 42.8605 59.3104 42.6857 59.4683C42.5166 59.6261 42.3841 59.815 42.2882 60.0348C42.198 60.2491 42.1529 60.4858 42.1529 60.7452C42.1529 61.2357 42.2995 61.619 42.5927 61.8953C42.8633 62.1489 43.2438 62.3096 43.7343 62.3773L44.4446 62.4787C44.625 62.5069 44.7603 62.5379 44.8505 62.5718C44.9407 62.6056 45.0253 62.6592 45.1042 62.7324C45.2621 62.8734 45.341 63.082 45.341 63.3582C45.341 63.6514 45.2311 63.8797 45.0112 64.0432C44.797 64.201 44.4925 64.28 44.0979 64.28C43.7878 64.28 43.5088 64.2405 43.2607 64.1616C43.0127 64.077 42.7787 63.9248 42.5588 63.7049L41.95 64.3053C42.2375 64.5985 42.5504 64.8043 42.8886 64.9227C43.2269 65.0411 43.6243 65.1002 44.081 65.1002C44.3967 65.1002 44.687 65.0608 44.952 64.9819C45.217 64.9029 45.4453 64.7874 45.637 64.6351C45.8287 64.4829 45.9781 64.2969 46.0852 64.077C46.1923 63.8571 46.2458 63.6091 46.2458 63.3328Z" fill="white"/>
<path d="M54.4493 65.0495V59.0285H53.536V61.5993H51.092V59.0285H50.1788V65.0495H51.092V62.4196H53.536V65.0495H54.4493Z" fill="white"/>
<path d="M60.5921 63.02V59.0285H59.6788V62.9777C59.6788 63.3836 59.5632 63.7021 59.3321 63.9333C59.1066 64.1644 58.8049 64.28 58.4272 64.28C58.0495 64.28 57.7479 64.1644 57.5224 63.9333C57.2969 63.7021 57.1841 63.3836 57.1841 62.9777V59.0285H56.2708V63.02C56.2708 63.33 56.3244 63.6147 56.4315 63.8741C56.5443 64.1278 56.6965 64.3448 56.8881 64.5252C57.0798 64.7056 57.3082 64.8466 57.5731 64.948C57.8381 65.0495 58.1228 65.1002 58.4272 65.1002C58.7317 65.1002 59.0163 65.0495 59.2813 64.948C59.5463 64.8466 59.7746 64.7056 59.9663 64.5252C60.1636 64.3448 60.3158 64.1278 60.4229 63.8741C60.5357 63.6147 60.5921 63.33 60.5921 63.02Z" fill="white"/>
<path d="M66.104 59.8488V59.0285H61.8758V59.8488H63.5333V65.0495H64.4466V59.8488H66.104Z" fill="white"/>
<path d="M71.2419 63.3328C71.2419 63.0735 71.1996 62.8396 71.115 62.631C71.0361 62.4224 70.9149 62.2448 70.7514 62.0982C70.6218 61.9855 70.4724 61.8953 70.3032 61.8276C70.1341 61.7543 69.9086 61.6951 69.6267 61.65L68.9417 61.5485C68.6486 61.5034 68.4231 61.4104 68.2652 61.2695C68.1863 61.1962 68.1271 61.1144 68.0876 61.0242C68.0538 60.9284 68.0369 60.8241 68.0369 60.7114C68.0369 60.4407 68.1299 60.2181 68.316 60.0433C68.5076 59.8629 68.7811 59.7727 69.1362 59.7727C69.3899 59.7727 69.6239 59.8065 69.8381 59.8742C70.058 59.9362 70.2609 60.0574 70.447 60.2378L71.0305 59.6628C70.7711 59.4203 70.4949 59.2456 70.2018 59.1385C69.9086 59.0313 69.5619 58.9778 69.1616 58.9778C68.8459 58.9778 68.564 59.0201 68.316 59.1046C68.0679 59.1892 67.8565 59.3104 67.6817 59.4683C67.5126 59.6261 67.3801 59.815 67.2843 60.0348C67.1941 60.2491 67.149 60.4858 67.149 60.7452C67.149 61.2357 67.2956 61.619 67.5887 61.8953C67.8593 62.1489 68.2399 62.3096 68.7303 62.3773L69.4407 62.4787C69.6211 62.5069 69.7564 62.5379 69.8466 62.5718C69.9368 62.6056 70.0213 62.6592 70.1003 62.7324C70.2581 62.8734 70.3371 63.082 70.3371 63.3582C70.3371 63.6514 70.2271 63.8797 70.0072 64.0432C69.793 64.201 69.4886 64.28 69.094 64.28C68.7839 64.28 68.5048 64.2405 68.2568 64.1616C68.0087 64.077 67.7748 63.9248 67.5549 63.7049L66.946 64.3053C67.2335 64.5985 67.5464 64.8043 67.8847 64.9227C68.2229 65.0411 68.6204 65.1002 69.077 65.1002C69.3928 65.1002 69.6831 65.0608 69.9481 64.9819C70.213 64.9029 70.4413 64.7874 70.633 64.6351C70.8247 64.4829 70.9741 64.2969 71.0812 64.077C71.1883 63.8571 71.2419 63.6091 71.2419 63.3328Z" fill="white"/>
<path fill-rule="evenodd" clip-rule="evenodd" d="M38.7281 45.1436L70.4795 49.9608V21.4259L38.0484 5.02082L17.895 0.839514L1.78719 13.8923V49.1202L38.7281 45.1436ZM1.00659 49.9893V13.5202L17.6911 0L38.3084 4.27753L71.2601 20.946V50.8687L38.711 45.9305L1.00659 49.9893Z" fill="white"/>
<path fill-rule="evenodd" clip-rule="evenodd" d="M67.6904 24.2088L61.1855 30.9739L60.6228 30.4329L67.1278 23.6677L67.6904 24.2088Z" fill="white"/>
<path fill-rule="evenodd" clip-rule="evenodd" d="M49.6941 32.7363L55.4184 37.1597L54.9412 37.7774L49.2168 33.354L49.6941 32.7363Z" fill="white"/>
<path fill-rule="evenodd" clip-rule="evenodd" d="M60.3884 49.1775L60.3884 8.19632L61.169 8.19632L61.169 49.1775L60.3884 49.1775Z" fill="white"/>
<path fill-rule="evenodd" clip-rule="evenodd" d="M54.7134 26.8202L54.7134 1.04081L55.494 1.0408L55.494 26.8202L54.7134 26.8202Z" fill="white"/>
<path fill-rule="evenodd" clip-rule="evenodd" d="M54.7134 54.9019L54.7134 24.0684L55.494 24.0684L55.494 54.9019L54.7134 54.9019Z" fill="white"/>
<path fill-rule="evenodd" clip-rule="evenodd" d="M68.45 27.9713H64.0266V27.1907H68.45V27.9713Z" fill="white"/>
<path fill-rule="evenodd" clip-rule="evenodd" d="M17.3989 47.7465V0.520508H18.1795V47.7465H17.3989Z" fill="white"/>
<path fill-rule="evenodd" clip-rule="evenodd" d="M37.9546 45.6648V4.68359H38.7352V45.6648H37.9546Z" fill="white"/>
</svg>
