<svg width="25" height="17" viewBox="0 0 25 17" fill="none" xmlns="http://www.w3.org/2000/svg">
<path d="M25 0.000244141H0V16.6665H25V0.000244141Z" fill="#F0F0F0"/>
<path d="M14.0625 0H10.9375V6.7713H0V9.89653H10.9375V16.6678H14.0625V9.89653H25V6.7713H14.0625V0Z" fill="#D80027"/>
<path d="M19.2278 11.2319L25 14.4388V11.2319H19.2278Z" fill="#0052B4"/>
<path d="M15.2174 11.2319L25 16.6667V15.1299L17.9838 11.2319H15.2174Z" fill="#0052B4"/>
<path d="M22.3943 16.6667L15.2174 12.6792V16.6667H22.3943Z" fill="#0052B4"/>
<path d="M15.2174 11.2319L25 16.6667V15.1299L17.9838 11.2319H15.2174Z" fill="#F0F0F0"/>
<path d="M15.2174 11.2319L25 16.6667V15.1299L17.9838 11.2319H15.2174Z" fill="#D80027"/>
<path d="M4.41118 11.2317L0 13.6824V11.2317H4.41118Z" fill="#0052B4"/>
<path d="M9.78275 11.9229V16.6666H1.24481L9.78275 11.9229Z" fill="#0052B4"/>
<path d="M7.01626 11.2319L0 15.1299V16.6667L9.78262 11.2319H7.01626Z" fill="#D80027"/>
<path d="M5.77222 5.43486L0 2.22803V5.43486H5.77222Z" fill="#0052B4"/>
<path d="M9.78262 5.43477L0 0V1.53682L7.01626 5.43477H9.78262Z" fill="#0052B4"/>
<path d="M2.60577 0L9.78294 3.9875V0H2.60577Z" fill="#0052B4"/>
<path d="M9.78262 5.43477L0 0V1.53682L7.01626 5.43477H9.78262Z" fill="#F0F0F0"/>
<path d="M9.78262 5.43477L0 0V1.53682L7.01626 5.43477H9.78262Z" fill="#D80027"/>
<path d="M20.5889 5.43481L25 2.98413V5.43481H20.5889Z" fill="#0052B4"/>
<path d="M15.2174 4.7437V0H23.7553L15.2174 4.7437Z" fill="#0052B4"/>
<path d="M17.9838 5.43477L25 1.53682V0L15.2174 5.43477H17.9838Z" fill="#D80027"/>
</svg>
